{
  "asset": { "version": "2.0", "generator": "@needle-tools/gltf-interactivity fixture" },
  "scene": 0,
  "scenes": [{ "nodes": [0, 1] }],
  "nodes": [
    { "name": "InteractiveTriangle", "mesh": 0, "translation": [-1, 0, 0] },
    { "name": "FixtureCamera", "camera": 0, "translation": [0, 0, 4] }
  ],
  "meshes": [{ "primitives": [{ "attributes": { "POSITION": 0 }, "indices": 1, "material": 0 }] }],
  "materials": [{
    "doubleSided": true,
    "pbrMetallicRoughness": { "baseColorFactor": [0.9, 0.1, 0.1, 1] },
    "extensions": { "KHR_materials_unlit": {} }
  }],
  "cameras": [{ "type": "perspective", "perspective": { "yfov": 0.785398, "znear": 0.1, "zfar": 100 } }],
  "accessors": [
    { "bufferView": 0, "componentType": 5126, "count": 3, "type": "VEC3", "min": [-0.5, -0.5, 0], "max": [0.5, 0.5, 0] },
    { "bufferView": 1, "componentType": 5123, "count": 3, "type": "SCALAR" }
  ],
  "bufferViews": [
    { "buffer": 0, "byteOffset": 0, "byteLength": 36, "target": 34962 },
    { "buffer": 0, "byteOffset": 36, "byteLength": 6, "target": 34963 }
  ],
  "buffers": [{ "byteLength": 42, "uri": "data:application/octet-stream;base64," }],
  "extensionsUsed": ["KHR_interactivity", "KHR_materials_unlit"],
  "extensions": {
    "KHR_interactivity": {
      "graph": 0,
      "graphs": [{
        "declarations": [{ "op": "pointer/set" }, { "op": "event/onStart" }],
        "nodes": [
          {
            "declaration": 0,
            "values": { "value": { "type": 0, "value": [1, 0, 0] } },
            "configuration": {
              "pointer": { "value": ["/nodes/0/translation"] },
              "type": { "value": [0] }
            },
            "flows": { "out": {}, "err": {} }
          },
          {
            "declaration": 1,
            "values": {},
            "configuration": {},
            "flows": { "out": { "node": 0, "socket": "in" } }
          }
        ],
        "variables": [],
        "events": [],
        "types": [{ "name": "float3", "signature": "float3" }]
      }]
    }
  }
}
